<?xml version="1.0" encoding="utf-8"?>
<!-- Generator: Adobe Illustrator 22.0.0, SVG Export Plug-In . SVG Version: 6.00 Build 0)  -->
<svg version="1.1" id="Layer_1" xmlns="http://www.w3.org/2000/svg" xmlns:xlink="http://www.w3.org/1999/xlink" x="0px" y="0px"
	 viewBox="0 0 56.7 56.7" style="enable-background:new 0 0 56.7 56.7;" xml:space="preserve">
<style type="text/css">
	.st0{fill-rule:evenodd;clip-rule:evenodd;fill:#E3E4E3;}
	.st1{fill-rule:evenodd;clip-rule:evenodd;fill:#069548;}
	.st2{opacity:0.2;fill-rule:evenodd;clip-rule:evenodd;fill:#020303;}
	.st3{opacity:0.5;fill-rule:evenodd;clip-rule:evenodd;fill:#FFFFFF;}
	.st4{fill:#FFFFFF;}
</style>
<g>
	<ellipse transform="matrix(0.1602 -0.9871 0.9871 0.1602 -4.1746 51.7863)" class="st0" cx="28.3" cy="28.3" rx="24" ry="24"/>
	<ellipse transform="matrix(0.1602 -0.9871 0.9871 0.1602 -4.1746 51.7863)" class="st1" cx="28.3" cy="28.3" rx="22.8" ry="22.8"/>
	<g>
		<path class="st2" d="M28.3,5.5c12.6,0,22.8,10.2,22.8,22.8c0,12.6-10.2,22.8-22.8,22.8c-12.6,0-22.8-10.2-22.8-22.8
			C5.5,15.8,15.8,5.5,28.3,5.5L28.3,5.5z M28.3,6.6c-12,0-21.8,9.7-21.8,21.8c0,12,9.7,21.8,21.8,21.8c12,0,21.8-9.7,21.8-21.8
			C50.1,16.3,40.4,6.6,28.3,6.6z"/>
		<path class="st3" d="M51.1,28.5l0,0.1c0,12.6-10.2,22.8-22.8,22.8c-12.6,0-22.8-10.2-22.8-22.8l0-0.1C5.6,41,15.8,51.1,28.3,51.1
			S51.1,41,51.1,28.5L51.1,28.5z M28.3,6.9c12,0,21.7,9.7,21.8,21.6l0-0.1c0-12-9.7-21.8-21.8-21.8c-12,0-21.8,9.7-21.8,21.8l0,0.1
			C6.7,16.5,16.4,6.9,28.3,6.9z"/>
	</g>
	<path class="st4" d="M12.4,37.6V39h2.2v3.9c0,0.3,0.2,0.5,0.5,0.5h26.5c0.3,0,0.5-0.2,0.5-0.5V39h2.2v-1.4H12.4z M24.5,10.3v26.7h2
		v-3.8c0-1,0.8-1.9,1.8-1.9c1,0,1.8,0.9,1.8,1.9v3.8h2V10.3H24.5z M30.2,27.2h-3.7v-3.7h3.7V27.2z M30.2,21.5h-3.7v-3.7h3.7V21.5z
		 M30.2,15.9h-3.7v-3.7h3.7V15.9z M15.4,16.2v6.7v14.2h7.2V16.2H15.4z M20.8,27.2h-3.7v-3.7h3.7V27.2z M20.8,21.5h-3.7v-3.7h3.7
		V21.5z M34.1,16.2v20.9h7.2V22.9v-6.7H34.1z M39.5,27.2h-3.7v-3.7h3.7V27.2z M39.5,21.5h-3.7v-3.7h3.7V21.5z"/>
</g>
</svg>
