<?xml version="1.0" encoding="utf-8"?>
<!-- Generator: Adobe Illustrator 22.0.0, SVG Export Plug-In . SVG Version: 6.00 Build 0)  -->
<svg version="1.1" id="Layer_1" xmlns="http://www.w3.org/2000/svg" xmlns:xlink="http://www.w3.org/1999/xlink" x="0px" y="0px"
	 viewBox="0 0 56.7 56.7" style="enable-background:new 0 0 56.7 56.7;" xml:space="preserve">
<style type="text/css">
	.st0{fill-rule:evenodd;clip-rule:evenodd;fill:#E3E4E3;}
	.st1{fill-rule:evenodd;clip-rule:evenodd;fill:#E9262A;}
	.st2{opacity:0.2;fill-rule:evenodd;clip-rule:evenodd;fill:#020303;}
	.st3{opacity:0.5;fill-rule:evenodd;clip-rule:evenodd;fill:#FFFFFF;}
	.st4{fill:#FFFFFF;}
</style>
<g>
	<circle class="st0" cx="28.3" cy="28.3" r="24"/>
	
		<ellipse transform="matrix(0.7071 -0.7071 0.7071 0.7071 -11.7415 28.3465)" class="st1" cx="28.3" cy="28.3" rx="22.8" ry="22.8"/>
	<g>
		<path class="st2" d="M28.3,5.5c12.6,0,22.8,10.2,22.8,22.8c0,12.6-10.2,22.8-22.8,22.8c-12.6,0-22.8-10.2-22.8-22.8
			C5.5,15.8,15.8,5.5,28.3,5.5L28.3,5.5z M28.3,6.6c-12,0-21.8,9.7-21.8,21.8c0,12,9.7,21.8,21.8,21.8c12,0,21.8-9.7,21.8-21.8
			C50.1,16.3,40.4,6.6,28.3,6.6z"/>
		<path class="st3" d="M51.1,28.5l0,0.1c0,12.6-10.2,22.8-22.8,22.8c-12.6,0-22.8-10.2-22.8-22.8l0-0.1C5.6,41,15.8,51.1,28.3,51.1
			S51.1,41,51.1,28.5L51.1,28.5z M28.3,6.9c12,0,21.7,9.7,21.8,21.6l0-0.1c0-12-9.7-21.8-21.8-21.8c-12,0-21.8,9.7-21.8,21.8l0,0.1
			C6.7,16.5,16.4,6.9,28.3,6.9z"/>
	</g>
	<g>
		<g>
			<path class="st4" d="M11.8,40.8h12.7V16.2H11.8V40.8z M18.1,38.6c-0.9,0-1.6-0.7-1.6-1.6c0-0.9,0.7-1.6,1.6-1.6
				c0.9,0,1.6,0.7,1.6,1.6C19.7,37.9,19,38.6,18.1,38.6z M18.1,33.1c-0.9,0-1.6-0.7-1.6-1.6s0.7-1.6,1.6-1.6c0.9,0,1.6,0.7,1.6,1.6
				C19.7,32.4,19,33.1,18.1,33.1z M13,17.5h10.2v4.7H13V17.5z M13,23.3h10.2v4.7H13V23.3z"/>
			<polygon class="st4" points="26.1,40.8 26.2,17.5 24.5,16.2 24.5,40.8 			"/>
			<rect x="13.7" y="18.2" class="st4" width="8.8" height="3.3"/>
			<rect x="13.7" y="24" class="st4" width="8.8" height="3.3"/>
		</g>
		<g>
			<path class="st4" d="M27.1,40.8h12.7V16.2H27.1V40.8z M33.5,38.6c-0.9,0-1.6-0.7-1.6-1.6c0-0.9,0.7-1.6,1.6-1.6
				c0.9,0,1.6,0.7,1.6,1.6C35.1,37.9,34.4,38.6,33.5,38.6z M33.5,33.1c-0.9,0-1.6-0.7-1.6-1.6s0.7-1.6,1.6-1.6
				c0.9,0,1.6,0.7,1.6,1.6C35.1,32.4,34.4,33.1,33.5,33.1z M28.4,17.5h10.2v4.7H28.4V17.5z M28.4,23.3h10.2v4.7H28.4V23.3z"/>
			<polygon class="st4" points="45.1,39.4 45.1,20.3 39.8,16.2 39.8,40.8 			"/>
			<rect x="29.1" y="18.2" class="st4" width="8.8" height="3.3"/>
			<rect x="29.1" y="24" class="st4" width="8.8" height="3.3"/>
		</g>
	</g>
</g>
</svg>
