<?xml version="1.0" encoding="utf-8"?>
<!-- Generator: Adobe Illustrator 22.0.0, SVG Export Plug-In . SVG Version: 6.00 Build 0)  -->
<svg version="1.1" id="Layer_1" xmlns="http://www.w3.org/2000/svg" xmlns:xlink="http://www.w3.org/1999/xlink" x="0px" y="0px"
	 viewBox="0 0 56.7 56.7" style="enable-background:new 0 0 56.7 56.7;" xml:space="preserve">
<style type="text/css">
	.st0{fill-rule:evenodd;clip-rule:evenodd;fill:#E3E4E3;}
	.st1{fill-rule:evenodd;clip-rule:evenodd;fill:#E71389;}
	.st2{opacity:0.2;fill-rule:evenodd;clip-rule:evenodd;fill:#020303;}
	.st3{opacity:0.5;fill-rule:evenodd;clip-rule:evenodd;fill:#FFFFFF;}
	.st4{fill-rule:evenodd;clip-rule:evenodd;fill:#FFFFFF;}
</style>
<g>
	<g>
		<circle class="st0" cx="28.3" cy="28.3" r="24"/>
		
			<ellipse transform="matrix(0.9951 -9.853772e-02 9.853772e-02 0.9951 -2.6552 2.9312)" class="st1" cx="28.3" cy="28.3" rx="22.8" ry="22.8"/>
		<g>
			<path class="st2" d="M28.3,5.5c12.6,0,22.8,10.2,22.8,22.8c0,12.6-10.2,22.8-22.8,22.8c-12.6,0-22.8-10.2-22.8-22.8
				C5.5,15.8,15.8,5.5,28.3,5.5L28.3,5.5z M28.3,6.6c-12,0-21.8,9.7-21.8,21.8c0,12,9.7,21.8,21.8,21.8c12,0,21.8-9.7,21.8-21.8
				C50.1,16.3,40.4,6.6,28.3,6.6z"/>
			<path class="st3" d="M51.1,28.5l0,0.1c0,12.6-10.2,22.8-22.8,22.8c-12.6,0-22.8-10.2-22.8-22.8l0-0.1C5.6,41,15.8,51.1,28.3,51.1
				S51.1,41,51.1,28.5L51.1,28.5z M28.3,6.9c12,0,21.7,9.7,21.8,21.6l0-0.1c0-12-9.7-21.8-21.8-21.8c-12,0-21.8,9.7-21.8,21.8l0,0.1
				C6.7,16.5,16.4,6.9,28.3,6.9z"/>
		</g>
		<g>
			<path class="st4" d="M23.8,31.7c-1.1,0-2.4,0-3.5,0c-1.4,0.1-1.2,1.5-0.4,1.7c0.4,0.1,19.1,0.1,20.4,0c0-3.1,0.4-3.7-2.4-4
				l-11.5-1.1C23.5,28,23.8,27.8,23.8,31.7L23.8,31.7z M22.7,29.5c-0.7,2.2-4.1,1.2-3.4-1.1C20,26.2,23.5,27.3,22.7,29.5L22.7,29.5z
				 M16,29.4v-3.6h1.9l0,9.2l22.3,0v5.6l-2,0l0-3.7l-20.3,0l0,3.8l-2,0L16,29.4z"/>
			<g>
				<g>
					<g>
						<polygon class="st4" points="18.5,18.2 19.1,20 21,20 19.5,21.1 20.1,23 18.5,21.8 17,23 17.6,21.1 16,20 17.9,20 						"/>
						<polygon class="st4" points="23,16 23.6,17.8 25.5,17.8 23.9,18.9 24.5,20.7 23,19.6 21.4,20.7 22,18.9 20.5,17.8 22.4,17.8 
													"/>
					</g>
					<g>
						<polygon class="st4" points="38.2,18.2 37.6,20 35.7,20 37.3,21.1 36.7,23 38.2,21.8 39.7,23 39.2,21.1 40.7,20 38.8,20 
													"/>
						<polygon class="st4" points="33.8,16 33.2,17.8 31.3,17.8 32.8,18.9 32.2,20.7 33.8,19.6 35.3,20.7 34.7,18.9 36.3,17.8 
							34.4,17.8 						"/>
					</g>
				</g>
				<polygon class="st4" points="28.4,13.2 29.1,15.5 31.5,15.5 29.6,16.9 30.3,19.2 28.4,17.8 26.4,19.2 27.2,16.9 25.2,15.5 
					27.6,15.5 				"/>
			</g>
		</g>
	</g>
</g>
</svg>
