<?xml version="1.0" encoding="utf-8"?>
<!-- Generator: Adobe Illustrator 22.0.0, SVG Export Plug-In . SVG Version: 6.00 Build 0)  -->
<svg version="1.1" id="Layer_1" xmlns="http://www.w3.org/2000/svg" xmlns:xlink="http://www.w3.org/1999/xlink" x="0px" y="0px"
	 viewBox="0 0 56.7 56.7" style="enable-background:new 0 0 56.7 56.7;" xml:space="preserve">
<style type="text/css">
	.st0{fill-rule:evenodd;clip-rule:evenodd;fill:#E3E4E3;}
	.st1{fill-rule:evenodd;clip-rule:evenodd;fill:#069548;}
	.st2{opacity:0.2;fill-rule:evenodd;clip-rule:evenodd;fill:#020303;}
	.st3{opacity:0.5;fill-rule:evenodd;clip-rule:evenodd;fill:#FFFFFF;}
	.st4{fill-rule:evenodd;clip-rule:evenodd;fill:#FFFFFF;}
</style>
<g>
	<g>
		<circle class="st0" cx="28.3" cy="28.3" r="24"/>
		<circle class="st1" cx="28.3" cy="28.3" r="22.8"/>
		<g>
			<path class="st2" d="M28.3,5.5c12.6,0,22.8,10.2,22.8,22.8c0,12.6-10.2,22.8-22.8,22.8c-12.6,0-22.8-10.2-22.8-22.8
				C5.5,15.8,15.8,5.5,28.3,5.5L28.3,5.5z M28.3,6.6c-12,0-21.8,9.7-21.8,21.8c0,12,9.7,21.8,21.8,21.8c12,0,21.8-9.7,21.8-21.8
				C50.1,16.3,40.4,6.6,28.3,6.6z"/>
			<path class="st3" d="M51.1,28.5l0,0.1c0,12.6-10.2,22.8-22.8,22.8c-12.6,0-22.8-10.2-22.8-22.8l0-0.1C5.6,41,15.8,51.1,28.3,51.1
				S51.1,41,51.1,28.5L51.1,28.5z M28.3,6.9c12,0,21.7,9.7,21.8,21.6l0-0.1c0-12-9.7-21.8-21.8-21.8c-12,0-21.8,9.7-21.8,21.8l0,0.1
				C6.7,16.5,16.4,6.9,28.3,6.9z"/>
		</g>
		<g>
			<g>
				<g>
					<path class="st4" d="M15.6,28.6v9.8c0,0.2,0.3,0.4,0.4,0.4h5v-4.3c0-0.2,0.2-0.4,0.4-0.4h4c0.2,0,0.4,0.2,0.4,0.4v4.3h5
						c0.1,0,0.4-0.2,0.4-0.4v-9.8c0-0.1-0.4-0.4-0.4-0.4l-5.9-5.2c-0.1-0.1-0.1-0.1-0.2-0.2l-1.2-1.1l-7.6,6.8
						C15.6,28.5,15.6,28.4,15.6,28.6z"/>
					<path class="st4" d="M12.3,27.6l0.3,0.3c0.1,0.1,0.2,0.2,0.3,0.3c0.1,0.1,0.2,0.2,0.3,0.3c0.1,0.1,0.2,0.2,0.3,0.3
						c0.2,0,1.1-0.9,1.3-1.1c0.2-0.2,0.4-0.4,0.6-0.5l0.9-0.8c0.4-0.4,0.9-0.7,1.3-1.1l1.5-1.4c0.1-0.1,0.1-0.1,0.1-0.1l1.7-1.5
						c0.4-0.3,0.8-0.8,1.2-1.1l1.3-1.1c0.1,0,0.2,0.2,0.3,0.2l4.3,3.8c0.1,0.1,0.1,0.1,0.2,0.1l0.4,0.4c0.1,0.1,0.2,0.2,0.3,0.3
						l0.6,0.6c0.1,0.1,0.2,0.1,0.3,0.3c0.1,0.1,0.1,0.1,0.2,0.1L31,27c0.6,0.5,1.2,1.2,1.9,1.7c0.1,0.1,0.2,0.2,0.3,0.3
						c0.3-0.2,0.5-0.6,0.7-0.8C34,28.1,34,28,34.1,28c0.1-0.1,0.1-0.1,0.1-0.2c0.1-0.1,0.1-0.1,0.2-0.2c-0.1-0.2-0.5-0.4-0.7-0.6
						c-0.1-0.1-0.2-0.2-0.3-0.3L32.5,26c-0.1-0.1-0.1-0.1-0.2-0.2l-1.9-1.7c-0.1-0.1-0.1-0.1-0.2-0.1c-0.1-0.1-0.1-0.1-0.1-0.1
						l-0.3-0.3c-0.1-0.1-0.1-0.1-0.2-0.1l-0.4-0.3c-0.3-0.3-0.7-0.6-1-0.9l-0.7-0.6c-0.1-0.1-0.1-0.1-0.2-0.1L27,21.1
						c-0.1-0.1-0.1-0.1-0.2-0.2c-0.1-0.1-0.1-0.1-0.2-0.1l-2.8-2.5c-0.4-0.3-0.4-0.7-0.9-0.2l-1.7,1.5c-0.7,0.6-1.4,1.2-2.1,1.8
						l-4.6,4.1c-0.4,0.4-1.2,1-1.6,1.4c-0.1,0.1-0.2,0.2-0.3,0.3C12.5,27.4,12.4,27.5,12.3,27.6z"/>
					<path class="st4" d="M15.6,23.4c0.1-0.1,0.2-0.2,0.4-0.3l0.5-0.5c0.4-0.3,1.3-1.2,1.6-1.4c0.1-0.1,0.3-0.3,0.3-0.4v-1.6h-2.8
						V23.4z"/>
				</g>
			</g>
			<g>
				<path class="st4" d="M32.3,36.5h1.4V33c0-0.2,0.2-0.3,0.3-0.3h3.2c0.2,0,0.3,0.2,0.3,0.3v3.5h4c0.1,0,0.3-0.2,0.3-0.4v-7.8
					c0-0.1-0.3-0.3-0.4-0.4l-4.7-4.1c-0.1-0.1-0.1-0.1-0.2-0.2l-1-0.9L33.2,25c0,0,0.1,0.1,0.1,0.1l0.9,0.8l0,0
					c0.1,0.1,0.2,0.2,0.3,0.3c0.3,0.3,0.5,0.4,0.8,0.8l0.4,0.7l-0.4,0.7c-0.1,0.1-0.2,0.2-0.2,0.3c0,0.1-0.1,0.1-0.1,0.2
					c-0.1,0.1-0.1,0.1-0.2,0.2c-0.3,0.3-0.5,0.6-0.9,0.9l-0.5,0.3l-0.5-0.1c-0.3-0.1-0.5-0.2-0.7-0.4V36.5z"/>
				<path class="st4" d="M32.5,24.4l1.1-1c0.4-0.3,0.6-0.6,1-0.9l1-0.9c0.1,0,0.2,0.1,0.2,0.2l3.4,3.1c0.1,0.1,0.1,0.1,0.1,0.1
					l0.4,0.3c0.1,0.1,0.2,0.1,0.2,0.2l0.5,0.4c0.1,0.1,0.1,0.1,0.2,0.2c0,0,0.1,0.1,0.1,0.1l0.9,0.8c0.5,0.4,1,0.9,1.5,1.3
					c0.1,0.1,0.1,0.2,0.3,0.2c0.2-0.2,0.4-0.4,0.6-0.6c0,0,0.1-0.1,0.1-0.1c0.1-0.1,0.1-0.1,0.1-0.1c0.1-0.1,0.1-0.1,0.1-0.1
					c-0.1-0.2-0.4-0.3-0.5-0.5c-0.1-0.1-0.2-0.1-0.3-0.2l-0.7-0.6c-0.1,0-0.1-0.1-0.1-0.1l-1.5-1.3c-0.1-0.1-0.1-0.1-0.1-0.1
					c0,0-0.1-0.1-0.1-0.1l-0.3-0.2c-0.1-0.1-0.1-0.1-0.1-0.1l-0.3-0.2c-0.3-0.2-0.6-0.5-0.8-0.7l-0.5-0.5c-0.1-0.1-0.1-0.1-0.1-0.1
					l-0.3-0.2c-0.1,0-0.1-0.1-0.1-0.1c-0.1-0.1-0.1-0.1-0.1-0.1l-2.2-2c-0.3-0.3-0.4-0.5-0.7-0.1l-1.4,1.2c-0.6,0.5-1.1,1-1.7,1.5
					l-0.8,0.7L32.5,24.4z"/>
				<path class="st4" d="M30.9,22.9c0.2-0.2,0.4-0.4,0.5-0.5c0.1,0,0.3-0.2,0.3-0.3v-1.3h-2.2v0.7c0.2,0.2,0.4,0.4,0.6,0.5l0.3,0.3
					c0.1,0.1,0.2,0.1,0.2,0.2L30.9,22.9z"/>
			</g>
		</g>
	</g>
</g>
</svg>
