<?xml version="1.0" encoding="utf-8"?>
<!-- Generator: Adobe Illustrator 22.0.0, SVG Export Plug-In . SVG Version: 6.00 Build 0)  -->
<svg version="1.1" id="Layer_1" xmlns="http://www.w3.org/2000/svg" xmlns:xlink="http://www.w3.org/1999/xlink" x="0px" y="0px"
	 viewBox="0 0 56.7 56.7" style="enable-background:new 0 0 56.7 56.7;" xml:space="preserve">
<style type="text/css">
	.st0{fill-rule:evenodd;clip-rule:evenodd;fill:#E3E4E3;}
	.st1{fill-rule:evenodd;clip-rule:evenodd;fill:#ED6226;}
	.st2{fill-rule:evenodd;clip-rule:evenodd;fill:#FFFFFF;}
	.st3{opacity:0.2;fill-rule:evenodd;clip-rule:evenodd;fill:#020303;}
	.st4{opacity:0.5;fill-rule:evenodd;clip-rule:evenodd;fill:#FFFFFF;}
</style>
<g>
	<g>
		<circle class="st0" cx="28.3" cy="28.3" r="24"/>
		<circle class="st1" cx="28.3" cy="28.3" r="22.8"/>
		<path class="st2" d="M26.9,35.3h4.5v4.5h-4.5V35.3L26.9,35.3z M39.1,18.4c0.2-1.3-0.2-2.8-0.8-3.8c-2-3.5-6.8-3.6-9-0.7
			c-1.9,2.5-2.8-1-5.9,0.7c-0.8,0.4-1.2,1.1-1.7,1.7c-0.5,0.6-1.1,0.5-1.7,0.4c-3-0.4-4.1,3-2.6,4.6c1.2,1.2,2.3,1.1,3.7,0.4
			c1.4-0.7,1.8,0.5,3.2,0.9c3,0.8,3.4-1.9,5.1-1.3c0.9,0.3,3.1,2.9,6.8,1C37.7,21.5,38.8,20.2,39.1,18.4L39.1,18.4z M18.5,35.3H23
			v4.5h-4.5V35.3L18.5,35.3z M17,31.3l-1.3,0.1l0,11.4H41l0-16.2l-7.4,4.8l0-4.9c-0.3,0.2-0.7,0.4-1,0.6c-0.9,0.6-6.6,4.6-7.2,4.5
			l0-7.5h-3.2l0,7.2l-1.8,0l0-7.2h-3.3c0,0.4,0,7,0,7.2L17,31.3z"/>
		<g>
			<path class="st3" d="M28.3,5.5c12.6,0,22.8,10.2,22.8,22.8c0,12.6-10.2,22.8-22.8,22.8c-12.6,0-22.8-10.2-22.8-22.8
				C5.5,15.8,15.8,5.5,28.3,5.5L28.3,5.5z M28.3,6.6c-12,0-21.8,9.7-21.8,21.8c0,12,9.7,21.8,21.8,21.8c12,0,21.8-9.7,21.8-21.8
				C50.1,16.3,40.4,6.6,28.3,6.6z"/>
			<path class="st4" d="M51.1,28.5l0,0.1c0,12.6-10.2,22.8-22.8,22.8c-12.6,0-22.8-10.2-22.8-22.8l0-0.1C5.6,41,15.8,51.1,28.3,51.1
				S51.1,41,51.1,28.5L51.1,28.5z M28.3,6.9c12,0,21.7,9.7,21.8,21.6l0-0.1c0-12-9.7-21.8-21.8-21.8c-12,0-21.8,9.7-21.8,21.8l0,0.1
				C6.7,16.5,16.4,6.9,28.3,6.9z"/>
		</g>
	</g>
</g>
</svg>
