<?xml version="1.0" encoding="utf-8"?>
<!-- Generator: Adobe Illustrator 22.0.0, SVG Export Plug-In . SVG Version: 6.00 Build 0)  -->
<svg version="1.1" id="Layer_1" xmlns="http://www.w3.org/2000/svg" xmlns:xlink="http://www.w3.org/1999/xlink" x="0px" y="0px"
	 viewBox="0 0 56.7 56.7" style="enable-background:new 0 0 56.7 56.7;" xml:space="preserve">
<style type="text/css">
	.st0{fill-rule:evenodd;clip-rule:evenodd;fill:#E3E4E3;}
	.st1{fill-rule:evenodd;clip-rule:evenodd;fill:#ED6226;}
	.st2{fill-rule:evenodd;clip-rule:evenodd;fill:#FFFFFF;}
	.st3{opacity:0.2;fill-rule:evenodd;clip-rule:evenodd;fill:#020303;}
	.st4{opacity:0.5;fill-rule:evenodd;clip-rule:evenodd;fill:#FFFFFF;}
</style>
<g>
	<g>
		<circle class="st0" cx="28.3" cy="28.3" r="24"/>
		<circle class="st1" cx="28.3" cy="28.3" r="22.8"/>
		<path class="st2" d="M19.3,22.6h18v16.6l2.6,2.7H16.7l2.6-2.7V22.6L19.3,22.6z M22.4,14.8h11.8v3.5h3.9v2.8H18.5v-2.8h3.9V14.8
			L22.4,14.8z M21,24.7V28h3.9v-3.4H21L21,24.7z M21,34v3.4h3.9V34H21L21,34z M26.4,34v3.4h3.9V34H26.4L26.4,34z M31.8,34v3.4h3.9
			V34H31.8L31.8,34z M21,29.3v3.4h3.9v-3.4H21L21,29.3z M26.4,29.3v3.4h3.9v-3.4H26.4L26.4,29.3z M26.4,24.7V28h3.9v-3.4H26.4
			L26.4,24.7z M31.8,24.7V28h3.9v-3.4H31.8L31.8,24.7z M31.8,29.3v3.4h3.9v-3.4H31.8z"/>
		<g>
			<path class="st3" d="M28.3,5.5c12.6,0,22.8,10.2,22.8,22.8c0,12.6-10.2,22.8-22.8,22.8c-12.6,0-22.8-10.2-22.8-22.8
				C5.5,15.8,15.8,5.5,28.3,5.5L28.3,5.5z M28.3,6.6c-12,0-21.8,9.7-21.8,21.8c0,12,9.7,21.8,21.8,21.8c12,0,21.8-9.7,21.8-21.8
				C50.1,16.3,40.4,6.6,28.3,6.6z"/>
			<path class="st4" d="M51.1,28.5l0,0.1c0,12.6-10.2,22.8-22.8,22.8c-12.6,0-22.8-10.2-22.8-22.8l0-0.1C5.6,41,15.8,51.1,28.3,51.1
				S51.1,41,51.1,28.5L51.1,28.5z M28.3,6.9c12,0,21.7,9.7,21.8,21.6l0-0.1c0-12-9.7-21.8-21.8-21.8c-12,0-21.8,9.7-21.8,21.8l0,0.1
				C6.7,16.5,16.4,6.9,28.3,6.9z"/>
		</g>
	</g>
</g>
</svg>
