<?xml version="1.0" encoding="utf-8"?>
<!-- Generator: Adobe Illustrator 22.0.0, SVG Export Plug-In . SVG Version: 6.00 Build 0)  -->
<svg version="1.1" id="Layer_1" xmlns="http://www.w3.org/2000/svg" xmlns:xlink="http://www.w3.org/1999/xlink" x="0px" y="0px"
	 viewBox="0 0 56.7 56.7" style="enable-background:new 0 0 56.7 56.7;" xml:space="preserve">
<style type="text/css">
	.st0{fill-rule:evenodd;clip-rule:evenodd;fill:#E3E4E3;}
	.st1{fill-rule:evenodd;clip-rule:evenodd;fill:#538ECB;}
	.st2{opacity:0.2;fill-rule:evenodd;clip-rule:evenodd;fill:#020303;}
	.st3{opacity:0.5;fill-rule:evenodd;clip-rule:evenodd;fill:#FFFFFF;}
	.st4{fill:#FFFFFF;}
</style>
<g>
	<circle class="st0" cx="28.3" cy="28.3" r="24"/>
	<circle class="st1" cx="28.3" cy="28.3" r="22.8"/>
	<g>
		<path class="st2" d="M28.3,5.4c12.6,0,22.8,10.2,22.8,22.8C51.1,40.8,40.9,51,28.3,51C15.8,51,5.5,40.8,5.5,28.2
			C5.5,15.6,15.8,5.4,28.3,5.4L28.3,5.4z M28.3,6.4c-12,0-21.8,9.7-21.8,21.8c0,12,9.7,21.8,21.8,21.8c12,0,21.8-9.7,21.8-21.8
			C50.1,16.2,40.4,6.4,28.3,6.4z"/>
		<path class="st3" d="M51.1,28.3l0,0.1c0,12.6-10.2,22.8-22.8,22.8c-12.6,0-22.8-10.2-22.8-22.8l0-0.1C5.6,40.9,15.8,51,28.3,51
			S51.1,40.9,51.1,28.3L51.1,28.3z M28.3,6.7c12,0,21.7,9.7,21.8,21.6l0-0.1c0-12-9.7-21.8-21.8-21.8c-12,0-21.8,9.7-21.8,21.8
			l0,0.1C6.7,16.4,16.4,6.7,28.3,6.7z"/>
	</g>
	<g>
		<path class="st4" d="M41.7,15H15v26.7h26.7V15z M39.6,39.6H17.1V17.1h22.6V39.6z"/>
		<path class="st4" d="M38.9,17.8H17.8v21.1h21.1V17.8z M30.6,36.5h-4.5V24.7h4.5V36.5L30.6,36.5z M30.6,23.3h-4.5v-3.1h4.5V23.3
			L30.6,23.3z"/>
	</g>
</g>
</svg>
