<?xml version="1.0" encoding="utf-8"?>
<!-- Generator: Adobe Illustrator 22.0.0, SVG Export Plug-In . SVG Version: 6.00 Build 0)  -->
<svg version="1.1" id="Layer_1" xmlns="http://www.w3.org/2000/svg" xmlns:xlink="http://www.w3.org/1999/xlink" x="0px" y="0px"
	 viewBox="0 0 56.7 56.7" style="enable-background:new 0 0 56.7 56.7;" xml:space="preserve">
<style type="text/css">
	.st0{fill-rule:evenodd;clip-rule:evenodd;fill:#E3E4E3;}
	.st1{fill-rule:evenodd;clip-rule:evenodd;fill:#069548;}
	.st2{fill-rule:evenodd;clip-rule:evenodd;fill:#FFFFFF;}
	.st3{opacity:0.2;fill-rule:evenodd;clip-rule:evenodd;fill:#020303;}
	.st4{opacity:0.5;fill-rule:evenodd;clip-rule:evenodd;fill:#FFFFFF;}
</style>
<g>
	<g>
		<ellipse transform="matrix(0.1602 -0.9871 0.9871 0.1602 -4.1746 51.7863)" class="st0" cx="28.3" cy="28.3" rx="24" ry="24"/>
		
			<ellipse transform="matrix(0.1602 -0.9871 0.9871 0.1602 -4.1746 51.7863)" class="st1" cx="28.3" cy="28.3" rx="22.8" ry="22.8"/>
		<g>
			<path class="st2" d="M17.9,20.3h20.9v19.2l3.1,3.2h-27l3.1-3.2V20.3L17.9,20.3z M19.9,22.8v3.9h4.5v-3.9H19.9L19.9,22.8z
				 M19.9,33.5v3.9h4.5v-3.9H19.9L19.9,33.5z M26.1,33.5v3.9h4.5v-3.9H26.1L26.1,33.5z M32.3,33.5v3.9h4.5v-3.9H32.3L32.3,33.5z
				 M19.9,28.2V32h4.5v-3.9H19.9L19.9,28.2z M26.1,28.2V32h4.5v-3.9H26.1L26.1,28.2z M26.1,22.8v3.9h4.5v-3.9H26.1L26.1,22.8z
				 M32.3,22.8v3.9h4.5v-3.9H32.3L32.3,22.8z M32.3,28.2V32h4.5v-3.9H32.3z"/>
			<g>
				<polygon class="st2" points="21.1,14.8 35.5,14.8 35.5,19 33.3,19 33.3,17.9 30.9,17.9 30.9,15.6 25.8,15.6 25.8,17.9 
					23.4,17.9 23.4,19 21.1,19 				"/>
			</g>
		</g>
		<g>
			<path class="st3" d="M28.3,5.5c12.6,0,22.8,10.2,22.8,22.8c0,12.6-10.2,22.8-22.8,22.8c-12.6,0-22.8-10.2-22.8-22.8
				C5.5,15.8,15.8,5.5,28.3,5.5L28.3,5.5z M28.3,6.6c-12,0-21.8,9.7-21.8,21.8c0,12,9.7,21.8,21.8,21.8c12,0,21.8-9.7,21.8-21.8
				C50.1,16.3,40.4,6.6,28.3,6.6z"/>
			<path class="st4" d="M51.1,28.5l0,0.1c0,12.6-10.2,22.8-22.8,22.8c-12.6,0-22.8-10.2-22.8-22.8l0-0.1C5.6,41,15.8,51.1,28.3,51.1
				S51.1,41,51.1,28.5L51.1,28.5z M28.3,6.9c12,0,21.7,9.7,21.8,21.6l0-0.1c0-12-9.7-21.8-21.8-21.8c-12,0-21.8,9.7-21.8,21.8l0,0.1
				C6.7,16.5,16.4,6.9,28.3,6.9z"/>
		</g>
	</g>
</g>
</svg>
