<?xml version="1.0" encoding="utf-8"?>
<!-- Generator: Adobe Illustrator 22.0.0, SVG Export Plug-In . SVG Version: 6.00 Build 0)  -->
<svg version="1.1" id="Layer_1" xmlns="http://www.w3.org/2000/svg" xmlns:xlink="http://www.w3.org/1999/xlink" x="0px" y="0px"
	 viewBox="0 0 56.7 56.7" style="enable-background:new 0 0 56.7 56.7;" xml:space="preserve">
<style type="text/css">
	.st0{fill-rule:evenodd;clip-rule:evenodd;fill:#E3E4E3;}
	.st1{fill-rule:evenodd;clip-rule:evenodd;fill:#538ECB;}
	.st2{fill-rule:evenodd;clip-rule:evenodd;fill:#FFFFFF;}
	.st3{opacity:0.2;fill-rule:evenodd;clip-rule:evenodd;fill:#020303;}
	.st4{opacity:0.5;fill-rule:evenodd;clip-rule:evenodd;fill:#FFFFFF;}
</style>
<g>
	<g>
		<circle class="st0" cx="28.3" cy="28.3" r="24"/>
		<circle class="st1" cx="28.3" cy="28.3" r="22.8"/>
		<g>
			<polygon class="st2" points="29.3,24.6 22.1,24.6 22,24.6 22.6,27.2 20.4,27.2 19.8,24.6 14.9,24.6 14.9,41 37.4,41 37.4,24.6 
				31.5,24.6 32.1,27.2 29.9,27.2 			"/>
			<polygon class="st2" points="41.8,22.6 38.3,24.6 38.3,41 41.8,39 			"/>
			<path class="st2" d="M18.4,22.2l-2.7,1.6h2.7V22.2L18.4,22.2z M19.1,22.2h0.2l0.4,1.6h-0.5V22.2L19.1,22.2z M21.5,22.2h7.3
				l0.4,1.6h-7.3L21.5,22.2L21.5,22.2z M31,22.2h9.7l-2.8,1.6h-6.5L31,22.2z"/>
			<path class="st2" d="M30.3,26.6L29,20.8c-0.3-1.2-1-2.2-1.9-3l0,0c-0.9-0.8-2.1-1.2-3.2-1.2c-1.2,0-2.1,0.5-2.7,1.2l0,0
				c-0.6,0.8-0.8,1.8-0.6,3l1.3,5.9h-1.1l-1.3-5.9c-0.3-1.5,0-2.8,0.7-3.7l0,0l0,0c0.7-1,1.9-1.6,3.4-1.6c1.5,0,2.9,0.6,4.1,1.6l0,0
				l0,0c1.2,1,2.1,2.3,2.4,3.7l1.3,5.9H30.3z"/>
			<path class="st2" d="M34,23.5l1-5.9c0.2-1.2-0.1-2.2-0.7-3l0,0c-0.6-0.8-1.6-1.2-2.7-1.2c-1.2,0-2.3,0.5-3.2,1.2l0,0
				c-0.5,0.4-0.9,0.9-1.2,1.4c-0.3-0.2-0.6-0.4-0.9-0.5c0.4-0.6,0.9-1.2,1.4-1.7l0,0l0,0c1.1-1,2.6-1.6,4-1.6c1.5,0,2.7,0.6,3.5,1.6
				l0,0l0,0c0.8,1,1.2,2.3,0.9,3.7l-1,5.9H34L34,23.5z M26.6,18.2c-0.3-0.2-0.6-0.4-1-0.6l0,0.1l-1,5.9h1.1L26.6,18.2z"/>
		</g>
		<g>
			<path class="st3" d="M28.3,5.5c12.6,0,22.8,10.2,22.8,22.8c0,12.6-10.2,22.8-22.8,22.8c-12.6,0-22.8-10.2-22.8-22.8
				C5.5,15.8,15.8,5.5,28.3,5.5L28.3,5.5z M28.3,6.6c-12,0-21.8,9.7-21.8,21.8c0,12,9.7,21.8,21.8,21.8c12,0,21.8-9.7,21.8-21.8
				C50.1,16.3,40.4,6.6,28.3,6.6z"/>
			<path class="st4" d="M51.1,28.5l0,0.1c0,12.6-10.2,22.8-22.8,22.8c-12.6,0-22.8-10.2-22.8-22.8l0-0.1C5.6,41,15.8,51.1,28.3,51.1
				S51.1,41,51.1,28.5L51.1,28.5z M28.3,6.9c12,0,21.7,9.7,21.8,21.6l0-0.1c0-12-9.7-21.8-21.8-21.8c-12,0-21.8,9.7-21.8,21.8l0,0.1
				C6.7,16.5,16.4,6.9,28.3,6.9z"/>
		</g>
	</g>
</g>
</svg>
